<svg width="1280" height="720" viewBox="0 0 1280 720" fill="none" xmlns="http://www.w3.org/2000/svg">
  <defs>
    <linearGradient id="bg" x1="80" y1="48" x2="1200" y2="672" gradientUnits="userSpaceOnUse">
      <stop stop-color="#0F172A"/>
      <stop offset="1" stop-color="#1D4ED8"/>
    </linearGradient>
    <linearGradient id="card" x1="120" y1="120" x2="1160" y2="600" gradientUnits="userSpaceOnUse">
      <stop stop-color="#FFFFFF" stop-opacity="0.16"/>
      <stop offset="1" stop-color="#FFFFFF" stop-opacity="0.06"/>
    </linearGradient>
    <filter id="shadow" x="80" y="88" width="1120" height="544" filterUnits="userSpaceOnUse" color-interpolation-filters="sRGB">
      <feFlood flood-opacity="0" result="BackgroundImageFix"/>
      <feColorMatrix in="SourceAlpha" type="matrix" values="0 0 0 0 0 0 0 0 0 0 0 0 0 0 0 0 0 0 127 0" result="hardAlpha"/>
      <feOffset dy="14"/>
      <feGaussianBlur stdDeviation="20"/>
      <feComposite in2="hardAlpha" operator="out"/>
      <feColorMatrix type="matrix" values="0 0 0 0 0.0156863 0 0 0 0 0.0901961 0 0 0 0 0.2 0 0 0 0.26 0"/>
      <feBlend mode="normal" in2="BackgroundImageFix" result="effect1_dropShadow_1_1"/>
      <feBlend mode="normal" in="SourceGraphic" in2="effect1_dropShadow_1_1" result="shape"/>
    </filter>
  </defs>

  <rect width="1280" height="720" rx="32" fill="url(#bg)"/>
  <circle cx="1078" cy="126" r="172" fill="#93C5FD" fill-opacity="0.16"/>
  <circle cx="176" cy="612" r="220" fill="#60A5FA" fill-opacity="0.14"/>

  <g filter="url(#shadow)">
    <rect x="120" y="120" width="1040" height="480" rx="28" fill="url(#card)" stroke="#FFFFFF" stroke-opacity="0.22"/>
  </g>

  <rect x="168" y="172" width="290" height="36" rx="18" fill="#DBEAFE" fill-opacity="0.22"/>
  <text x="190" y="196" fill="#E0F2FE" font-family="IBM Plex Sans, Noto Sans SC, sans-serif" font-size="18" font-weight="600" letter-spacing="0.08em">VOICE TYPING CONTEST</text>

  <text x="168" y="286" fill="white" font-family="IBM Plex Sans, Noto Sans SC, sans-serif" font-size="52" font-weight="700">Watch the benchmark demo</text>
  <text x="168" y="340" fill="#D6E4FF" font-family="IBM Plex Sans, Noto Sans SC, sans-serif" font-size="26" font-weight="500">GitHub README cannot inline the X video, so this cover links out to the recording.</text>
  <text x="168" y="386" fill="#D6E4FF" font-family="IBM Plex Sans, Noto Sans SC, sans-serif" font-size="26" font-weight="500">Click to open the showcase clip on X / Twitter.</text>

  <rect x="168" y="448" width="254" height="70" rx="35" fill="white"/>
  <polygon points="210,466 210,500 240,483" fill="#1D4ED8"/>
  <text x="280" y="492" fill="#1E3A8A" font-family="IBM Plex Sans, Noto Sans SC, sans-serif" font-size="28" font-weight="700">Play Demo</text>

  <rect x="770" y="196" width="276" height="328" rx="24" fill="#0F172A" fill-opacity="0.5" stroke="#BFDBFE" stroke-opacity="0.4"/>
  <rect x="802" y="236" width="212" height="16" rx="8" fill="#DBEAFE" fill-opacity="0.92"/>
  <rect x="802" y="274" width="178" height="16" rx="8" fill="#BFDBFE" fill-opacity="0.8"/>
  <rect x="802" y="338" width="212" height="106" rx="18" fill="#EFF6FF" fill-opacity="0.12" stroke="#E0F2FE" stroke-opacity="0.28"/>
  <path d="M830 392H870L898 356L934 430L972 320L1006 392H1022" stroke="#F8FAFC" stroke-width="12" stroke-linecap="round" stroke-linejoin="round"/>
  <circle cx="1012" cy="496" r="18" fill="#22C55E"/>
  <text x="802" y="504" fill="#F8FAFC" font-family="IBM Plex Sans, Noto Sans SC, sans-serif" font-size="24" font-weight="600">Live run timeline</text>

  <text x="770" y="568" fill="#BFDBFE" font-family="IBM Plex Mono, monospace" font-size="20">x.com/i/status/2036662683370741894</text>
</svg>
